<svg xmlns="http://www.w3.org/2000/svg" xmlns:xlink="http://www.w3.org/1999/xlink" width="266" height="128.303" viewBox="0 0 266 128.303">
    <defs>
      <filter id="a" x="162" y="23" width="104" height="58" filterUnits="userSpaceOnUse">
      <feOffset dy="3" input="SourceAlpha"/><feGaussianBlur stdDeviation="3" result="b"/>
      <feFlood flood-color="#481818" flood-opacity="0.161"/>
      <feComposite operator="in" in2="b"/>
      <feComposite in="SourceGraphic"/>
      </filter>
      <filter id="c" x="164" y="53" width="102" height="58" filterUnits="userSpaceOnUse">
      <feOffset dy="3" input="SourceAlpha"/><feGaussianBlur stdDeviation="3" result="d"/>
      <feFlood flood-color="#481818" flood-opacity="0.161"/>
      <feComposite operator="in" in2="d"/>
      <feComposite in="SourceGraphic"/>
      </filter>
    </defs>
    <g transform="translate(-1531 -886)">
    <g transform="translate(2 -1)">
    <g transform="matrix(1, 0, 0, 1, 1529, 887)" filter="url(#a)">
      <text transform="translate(214 61)" fill="#FFFFFF" font-size="30" font-family="SegoeUI-Semibold, Segoe UI" font-weight="600">
        <tspan x="-42.305" y="0">MORE</tspan>
      </text>
    </g>
    <g transform="matrix(1, 0, 0, 1, 1529, 887)" filter="url(#c)">
      <text transform="translate(215 91)" fill="#FFFFFF" font-size="30" font-family="SegoeUI-Semibold, Segoe UI" font-weight="600" letter-spacing="0.12em">
        <tspan x="-41.171" y="0">APPS</tspan>
      </text>
    </g>
    <line x2="84" transform="translate(1701.5 916.5)" fill="none" stroke="#FFFFFF" stroke-width="3"/>
    <line x2="84" transform="translate(1701.5 986.5)" fill="none" stroke="#FFFFFF" stroke-width="3"/>
    </g>
    <path d="M1630.468,932.964l82.331-29.809h34.068l-49.682,29.809Z" transform="translate(-83 78)" fill="#666" opacity="0.42"/>
    <g transform="translate(1531 886)">
    <path d="M276.691,124.847a6.31,6.31,0,0,0-6.3,6.3V246.2a6.31,6.31,0,0,0,6.3,6.3h63.016a6.31,6.31,0,0,0,6.3-6.3V131.15a6.31,6.31,0,0,0-6.3-6.3Z" transform="translate(-260.647 -124.847)" fill="#e6e6e6"/>
    <path d="M293.32,143a4.787,4.787,0,0,0-4.782,4.782V258.7a4.787,4.787,0,0,0,4.782,4.782h58.9A4.787,4.787,0,0,0,357,258.7V147.779A4.787,4.787,0,0,0,352.216,143Z" transform="translate(-275.217 -139.416)" fill="#fff"/>
    <path d="M370.488,195.525H313.614a1.054,1.054,0,0,1-1.053-1.053V180.364a1.054,1.054,0,0,1,1.053-1.053h56.874a1.054,1.054,0,0,1,1.053,1.053v14.108A1.054,1.054,0,0,1,370.488,195.525Zm-56.874-15.793a.633.633,0,0,0-.632.632v14.108a.633.633,0,0,0,.632.632h56.874a.633.633,0,0,0,.632-.632V180.364a.633.633,0,0,0-.632-.632Z" transform="translate(-294.5 -168.565)" fill="#e6e6e6"/>
    <path d="M370.488,429.6H313.614a1.054,1.054,0,0,1-1.053-1.053V402.437a1.054,1.054,0,0,1,1.053-1.053h56.874a1.054,1.054,0,0,1,1.053,1.053v26.115A1.054,1.054,0,0,1,370.488,429.6Zm-56.874-27.8a.633.633,0,0,0-.632.632v26.115a.633.633,0,0,0,.632.632h56.874a.633.633,0,0,0,.632-.632V402.437a.633.633,0,0,0-.632-.632Z" transform="translate(-294.5 -346.824)" fill="#e6e6e6"/>
    <path d="M496.9,306.561H471.627a1.054,1.054,0,0,1-1.053-1.053V291.4a1.054,1.054,0,0,1,1.053-1.053H496.9a1.054,1.054,0,0,1,1.053,1.053v14.108a1.054,1.054,0,0,1-1.053,1.053Zm-25.277-15.793a.633.633,0,0,0-.632.632v14.108a.633.633,0,0,0,.632.632H496.9a.633.633,0,0,0,.632-.632V291.4a.633.633,0,0,0-.632-.632Z" transform="translate(-421.337 -257.694)" fill="#e6e6e6"/>
    <path d="M338.891,601.708H313.614a1.054,1.054,0,0,1-1.053-1.053V574.33a1.054,1.054,0,0,1,1.053-1.053h25.277a1.054,1.054,0,0,1,1.053,1.053v26.326A1.054,1.054,0,0,1,338.891,601.708ZM313.614,573.7a.633.633,0,0,0-.632.632v26.326a.633.633,0,0,0,.632.632h25.277a.633.633,0,0,0,.632-.632V574.329a.633.633,0,0,0-.632-.632Z" transform="translate(-294.5 -484.803)" fill="#e6e6e6"/>
    <path d="M496.9,601.708H471.627a1.054,1.054,0,0,1-1.053-1.053V574.33a1.054,1.054,0,0,1,1.053-1.053H496.9a1.054,1.054,0,0,1,1.053,1.053v26.326a1.055,1.055,0,0,1-1.053,1.053ZM471.627,573.7a.633.633,0,0,0-.632.632v26.326a.633.633,0,0,0,.632.632H496.9a.633.633,0,0,0,.632-.632V574.329a.633.633,0,0,0-.632-.632Z" transform="translate(-421.337 -484.803)" fill="#e6e6e6"/><circle cx="4.29" cy="4.29" r="4.29" transform="translate(23.24 59.52)" fill="#6c63ff"/>
    <path d="M407.867,433.776a.715.715,0,0,0,0,1.43h33.709a.715.715,0,1,0,0-1.43Z" transform="translate(-370.428 -372.825)" fill="#e6e6e6"/>
    <path d="M407.867,455.521a.715.715,0,1,0,0,1.43h14.505a.715.715,0,0,0,0-1.43Z" transform="translate(-370.428 -390.28)" fill="#e6e6e6"/>
    <path d="M339.861,490.286c-.544,0-.987.321-.987.715s.443.715.987.715H386.37c.544,0,.987-.321.987-.715s-.443-.715-.987-.715Z" transform="translate(-315.622 -418.186)" fill="#e6e6e6"/><path d="M339.861,512.031c-.544,0-.987.321-.987.715s.443.715.987.715H386.37c.544,0,.987-.321.987-.715s-.443-.715-.987-.715Z" transform="translate(-315.622 -435.641)" fill="#e6e6e6"/><circle cx="4.29" cy="4.29" r="4.29" transform="translate(23.661 14.021)" fill="#6c63ff"/><path d="M410,203.162a.715.715,0,1,0,0,1.43h33.71a.715.715,0,0,0,0-1.43Z" transform="translate(-372.142 -187.711)" fill="#e6e6e6"/><path d="M410,224.907a.715.715,0,1,0,0,1.43h14.505a.715.715,0,1,0,0-1.43Z" transform="translate(-372.142 -205.166)" fill="#e6e6e6"/><path d="M349.431,318.552H325.718l5.58-9.666a1.14,1.14,0,0,1,1.974,0l2.384,4.129L339.709,306a1.427,1.427,0,0,1,2.471,0Zm-22.983-.421H348.7l-6.885-11.925a1.005,1.005,0,0,0-1.741,0l-4.418,7.653-2.749-4.761a.718.718,0,0,0-1.244,0Z" transform="translate(-305.061 -269.683)" fill="#e6e6e6"/><path d="M503.172,318.552H479.46l5.58-9.666a1.139,1.139,0,0,1,1.974,0l2.384,4.129,4.053-7.021a1.427,1.427,0,0,1,2.471,0Zm-22.983-.421h22.253l-6.885-11.925a1.005,1.005,0,0,0-1.741,0l-4.418,7.653-2.749-4.761a.718.718,0,0,0-1.244,0Z" transform="translate(-428.47 -269.683)" fill="#e6e6e6"/><path d="M338.891,306.561H313.614a1.054,1.054,0,0,1-1.053-1.053V291.4a1.054,1.054,0,0,1,1.053-1.053h25.277a1.054,1.054,0,0,1,1.053,1.053v14.108A1.054,1.054,0,0,1,338.891,306.561Zm-25.277-15.793a.633.633,0,0,0-.632.632v14.108a.633.633,0,0,0,.632.632h25.277a.633.633,0,0,0,.632-.632V291.4a.633.633,0,0,0-.632-.632Z" transform="translate(-294.5 -257.694)" fill="#e6e6e6"/><path d="M342.29,600.792a.715.715,0,1,0,0,1.43H356.8a.715.715,0,1,0,0-1.43Z" transform="translate(-317.789 -506.89)" fill="#e6e6e6"/><path d="M342.29,622.145a.715.715,0,1,0,0,1.43H356.8a.715.715,0,1,0,0-1.43Z" transform="translate(-317.789 -524.03)" fill="#e6e6e6"/><path d="M363.647,653.244a4.5,4.5,0,1,1,4.5-4.5A4.5,4.5,0,0,1,363.647,653.244Zm0-8.581a4.08,4.08,0,1,0,4.08,4.08,4.08,4.08,0,0,0-4.08-4.08Z" transform="translate(-331.894 -541.767)" fill="#e6e6e6"/><path d="M514.808,684.05a.715.715,0,0,0,0-1.43H500.3a.715.715,0,0,0,0,1.43Z" transform="translate(-444.627 -572.573)" fill="#e6e6e6"/><path d="M514.808,662.7a.715.715,0,1,0,0-1.43H500.3a.715.715,0,0,0,0,1.43Z" transform="translate(-444.627 -555.433)" fill="#e6e6e6"/><path d="M521.659,600.792a4.5,4.5,0,1,1-4.5,4.5A4.5,4.5,0,0,1,521.659,600.792Zm0,8.581a4.08,4.08,0,1,0-4.08-4.08,4.08,4.08,0,0,0,4.08,4.08Z" transform="translate(-458.731 -506.89)" fill="#e6e6e6"/><path d="M149.466,646.358H0v-.43H149.544Z" transform="translate(0 -518.489)" fill="#3f3d56"/><path d="M572.581,354.61l-2.886,6.112-2.207-5.263,2.886-1.868Z" transform="translate(-455.524 -283.829)" fill="#ffb8b8"/><path d="M675.484,357.774l.934,4.669,4.075-5.433-3.226-1.7Z" transform="translate(-542.213 -285.21)" fill="#ffb8b8"/><path d="M786.834,527.083c-1.647,1.172-3.214,1.762-4.414-.34a144.813,144.813,0,0,0,0-37.351L769.856,528.1l-4.584-.679c2.563-13.871,4.52-34.347,6.961-54.839l19.525-.17C794.345,487.19,790.037,506.4,786.834,527.083Z" transform="translate(-657.892 -403.841)" fill="#2f2e41"/><path d="M773.39,747.33l-9.578-.691a1.735,1.735,0,0,1-1.038-1.835l.431-3.105a.275.275,0,0,1,.521-.08c.616,1.227,1.611,1.273,3.017.039a1.366,1.366,0,0,1,1.845-.923c1.825,2.77,4.008,1.87,6.646,4.017a1.623,1.623,0,0,1-.413,2.5h0A1.623,1.623,0,0,1,773.39,747.33Z" transform="translate(-655.875 -619.157)" fill="#2f2e41"/><path d="M859.443,747.33l-9.578-.691a1.735,1.735,0,0,1-1.038-1.835l.431-3.105a.275.275,0,0,1,.521-.08c.616,1.227,1.611,1.273,3.017.039a1.366,1.366,0,0,1,1.845-.923c1.825,2.77,4.008,1.87,6.646,4.017a1.623,1.623,0,0,1-.413,2.5h0A1.623,1.623,0,0,1,859.443,747.33Z" transform="translate(-724.95 -619.157)" fill="#2f2e41"/><circle cx="6.452" cy="6.452" r="6.452" transform="translate(119.689 22.309)" fill="#ffb8b8"/><path d="M843.531,292h-9.847c2.729-3.094,2.369-6.53,0-10.187h9.847A12.992,12.992,0,0,0,843.531,292Z" transform="translate(-712.807 -250.841)" fill="#ffb8b8"/><path d="M811.687,340.945c-6.658,3.233-13.336,2.868-20.034-1.019-1.478-9.081-2.032-20.082-2.188-31.915a1.97,1.97,0,0,1,1.654-1.971l8.852-1.428,4.244,4.414,2.886-3.565,3.819,1.58a1.723,1.723,0,0,1,1.062,1.652C811.569,320.681,811.363,331.85,811.687,340.945Z" transform="translate(-677.312 -269.145)" fill="#6c63ff"/><path d="M840.763,235.082a6.133,6.133,0,0,0-3.33-3.885,12.149,12.149,0,0,1-9.25-1.295,7.378,7.378,0,0,1,2.945-4.716c1.216-1.074,1.751-.316,2.565-.774,2.717-1.531,6.259.24,7.712,3a3.691,3.691,0,0,1,.49,1.868Z" transform="translate(-708.392 -204.315)" fill="#2f2e41"/><path d="M901.154,350.6l-5.093-2.547-.849-32.258.813.25a5.429,5.429,0,0,1,3.823,4.869l.117,14.236Z" transform="translate(-762.195 -278.125)" fill="#6c63ff"/><path d="M754.08,344.772l-3.4,2.886c-4.99-4.317-8.457-9.189-9.508-14.941l5.984-17.525a5.369,5.369,0,0,1,4.685-3.62l1.046-.077-.764,12.309-3.82,9.423C748.07,335.753,751.111,340.285,754.08,344.772Z" transform="translate(-638.551 -274.671)" fill="#6c63ff"/>
    <ellipse cx="0.679" cy="1.188" rx="0.679" ry="1.188" transform="translate(131.064 28.082)" fill="#ffb8b8"/>
    </g>
  </g>
</svg>